<svg xmlns="http://www.w3.org/2000/svg" viewBox="0 0 222 73.44"><defs><style>.cls-1{fill:#202aef;}.cls-2{fill:#090e35;}</style></defs><g id="Capa_2" data-name="Capa 2"><g id="Capa_1-2" data-name="Capa 1"><path class="cls-1" d="M49.11,49.33V14.64H61.85l.37,2.78A21.7,21.7,0,0,1,67.3,14.9a18.56,18.56,0,0,1,6.19-1,12.05,12.05,0,0,1,5.27.95,7.61,7.61,0,0,1,3.07,2.78,20.74,20.74,0,0,1,5.31-2.71,21.47,21.47,0,0,1,7-1q6.08,0,8.93,3.18t2.85,9.7V49.33H92.37V28.4a4.75,4.75,0,0,0-1-3.33,4.22,4.22,0,0,0-3.15-1,6,6,0,0,0-4.68,2.05,11.5,11.5,0,0,1,.14,1.79V49.33H71V28.18a5.34,5.34,0,0,0-.73-3.11,3.28,3.28,0,0,0-2.78-1,5.6,5.6,0,0,0-2.71.73,10.85,10.85,0,0,0-2.35,1.76V49.33Zm72.76.74a15.77,15.77,0,0,1-6.11-1.18,9.87,9.87,0,0,1-4.5-3.66,10.9,10.9,0,0,1-1.69-6.29,10.48,10.48,0,0,1,3.66-8.53q3.66-3,11-3h9v-.65a3.18,3.18,0,0,0-1.69-3q-1.68-1-5.92-1a39.49,39.49,0,0,0-11.86,1.83V16.32a35.93,35.93,0,0,1,6.59-1.72,46.61,46.61,0,0,1,8.05-.69q8.26,0,13.1,3.36T146.39,28V49.33h-12l-.66-2.78A13.27,13.27,0,0,1,129,49.11,22.92,22.92,0,0,1,121.87,50.07ZM126.55,42a8.93,8.93,0,0,0,4-.8,9.38,9.38,0,0,0,2.75-2V34.91h-6.66q-4.55,0-4.54,3.59T126.55,42Zm26.06,7.32V14.64h13.25l.37,2.78a26.52,26.52,0,0,1,5.41-2.27,28.52,28.52,0,0,1,6.66-1.24V24.15c-1.27.1-2.64.27-4.13.52s-2.93.55-4.32.91a20.73,20.73,0,0,0-3.48,1.21V49.33Zm29.57,0V0h13.76V24.37l9.66-9.73h15.59L207.36,29.28l14.64,20H207.36L198.8,36.45l-2.86,2.86v10ZM39.88,12.05h2.67l2.12-9.53H37.76ZM39,14.56a1.42,1.42,0,0,1-1.39-1.11L36,6a16.41,16.41,0,0,0-2.52-1.46A29.32,29.32,0,0,0,21.08,2.2H0V49.33H21.08q11.06,0,17-5.56T44,26.06a34.33,34.33,0,0,0-1.69-11.5ZM28.69,34.07a6.92,6.92,0,0,1-3.58,3.74,15.12,15.12,0,0,1-5.79,1H13.76v-26h5.56a13.8,13.8,0,0,1,6,1.13,7.09,7.09,0,0,1,3.47,4,23,23,0,0,1,1.14,8.16A20.1,20.1,0,0,1,28.69,34.07Z"/><path class="cls-2" d="M6.59,73.44a6.35,6.35,0,0,1-4.87-1.77A6.67,6.67,0,0,1,.07,66.91a8.84,8.84,0,0,1,.7-3.69,5.13,5.13,0,0,1,2.14-2.39A7.08,7.08,0,0,1,6.57,60a11.12,11.12,0,0,1,2.08.18,10.91,10.91,0,0,1,1.75.45v1.93A9.38,9.38,0,0,0,8.67,62a11,11,0,0,0-1.93-.17A4.1,4.1,0,0,0,3.3,63.16a6,6,0,0,0-1,3.75,5,5,0,0,0,1.09,3.48,4.4,4.4,0,0,0,3.39,1.18,11.88,11.88,0,0,0,1.87-.15,8.22,8.22,0,0,0,1.77-.48v2a11,11,0,0,1-1.75.4A13.28,13.28,0,0,1,6.59,73.44Z"/><path class="cls-2" d="M17.92,73.44a5,5,0,0,1-3.8-1.3,6.27,6.27,0,0,1,0-7.42,5,5,0,0,1,3.79-1.29,5,5,0,0,1,3.81,1.29,5.23,5.23,0,0,1,1.21,3.71,5.27,5.27,0,0,1-1.2,3.71A5,5,0,0,1,17.92,73.44Zm0-1.87a2.68,2.68,0,0,0,2.15-.74,4.8,4.8,0,0,0,0-4.79,2.74,2.74,0,0,0-2.15-.73,2.75,2.75,0,0,0-2.14.73,4.8,4.8,0,0,0,0,4.79A2.68,2.68,0,0,0,17.92,71.57Z"/><path class="cls-2" d="M25.9,73.23v-9.6h2l.1,1a6.72,6.72,0,0,1,1.55-.86,5.6,5.6,0,0,1,2-.35,3.64,3.64,0,0,1,2.71.87A3.73,3.73,0,0,1,35.14,67v6.22H33V67.11a2.08,2.08,0,0,0-.46-1.55,2.44,2.44,0,0,0-1.71-.45,3.79,3.79,0,0,0-1.47.3,3.85,3.85,0,0,0-1.2.79v7Z"/><path class="cls-2" d="M41.62,73.44a11.61,11.61,0,0,1-1.9-.15A9.26,9.26,0,0,1,38.23,73V71.09a8.22,8.22,0,0,0,1.52.4,8.9,8.9,0,0,0,1.58.14,4.71,4.71,0,0,0,1.62-.2.78.78,0,0,0,.49-.79.84.84,0,0,0-.29-.67,2.92,2.92,0,0,0-.87-.44c-.39-.14-.88-.3-1.47-.49a10,10,0,0,1-1.48-.62,2.55,2.55,0,0,1-1-.86A2.47,2.47,0,0,1,38,66.18a2.41,2.41,0,0,1,1-2A5.15,5.15,0,0,1,42,63.43a9.94,9.94,0,0,1,1.58.12,7.84,7.84,0,0,1,1.28.3V65.7a6.52,6.52,0,0,0-1.25-.35,7.22,7.22,0,0,0-1.26-.12,5.24,5.24,0,0,0-1.59.18.72.72,0,0,0-.54.73.8.8,0,0,0,.56.8c.37.16,1,.37,1.79.64a8.42,8.42,0,0,1,1.8.73,2.37,2.37,0,0,1,1,.92,2.84,2.84,0,0,1,.3,1.39,2.4,2.4,0,0,1-1,2.12A5.35,5.35,0,0,1,41.62,73.44Z"/><path class="cls-2" d="M52.09,73.44a3.48,3.48,0,0,1-2.64-1,3.82,3.82,0,0,1-.93-2.79V63.63h2.21v6.06a2.12,2.12,0,0,0,.53,1.58,2.25,2.25,0,0,0,1.62.5,3.73,3.73,0,0,0,2.69-1.11v-7h2.19v9.6h-2l-.11-1a5.9,5.9,0,0,1-1.53.85A5.61,5.61,0,0,1,52.09,73.44Z"/><path class="cls-2" d="M63.53,73.44a2.52,2.52,0,0,1-1.78-.58,2.6,2.6,0,0,1-.61-1.92V59.58h2.21V70.74a1.11,1.11,0,0,0,.2.77.82.82,0,0,0,.61.2,3.48,3.48,0,0,0,.93-.12v1.6a3,3,0,0,1-.74.19A4.83,4.83,0,0,1,63.53,73.44Z"/><path class="cls-2" d="M70.79,73.44a3,3,0,0,1-2.3-.83,3.13,3.13,0,0,1-.76-2.23v-5H66.31V63.63h1.42V61.42l2.19-.67v2.88h2.55l-.14,1.72H69.92v4.9a1.47,1.47,0,0,0,.38,1.17,1.94,1.94,0,0,0,1.26.33,3.48,3.48,0,0,0,1.15-.2v1.56A5,5,0,0,1,70.79,73.44Z"/><path class="cls-2" d="M79.8,73.44a5,5,0,0,1-3.8-1.3,5.27,5.27,0,0,1-1.2-3.71A5.23,5.23,0,0,1,76,64.72a5,5,0,0,1,3.79-1.29,5,5,0,0,1,3.81,1.29,5.23,5.23,0,0,1,1.21,3.71,5.27,5.27,0,0,1-1.2,3.71A5,5,0,0,1,79.8,73.44Zm0-1.87A2.71,2.71,0,0,0,82,70.83,4.8,4.8,0,0,0,82,66a2.78,2.78,0,0,0-2.16-.73,2.75,2.75,0,0,0-2.14.73,4.87,4.87,0,0,0,0,4.79A2.68,2.68,0,0,0,79.8,71.57Z"/><path class="cls-2" d="M87.78,73.23v-9.6h2l.12,1.11a9.64,9.64,0,0,1,1.64-.81,8.88,8.88,0,0,1,1.88-.5v1.68a12.4,12.4,0,0,0-1.22.29,13.05,13.05,0,0,0-1.25.43,6.6,6.6,0,0,0-1,.47v6.93Z"/><path class="cls-2" d="M96.86,73.23V65.31H95.4l.2-1.68h3.46v9.6Z"/><path class="cls-2" d="M105.45,73.44a4.33,4.33,0,0,1-1.7-.33A2.68,2.68,0,0,1,102,70.5a2.86,2.86,0,0,1,.94-2.22,4.28,4.28,0,0,1,2.91-.84H109V67a2.37,2.37,0,0,0-.21-1.09,1.25,1.25,0,0,0-.77-.59,5.63,5.63,0,0,0-1.63-.18,9.64,9.64,0,0,0-3.18.51V64a7.59,7.59,0,0,1,1.58-.43,11.5,11.5,0,0,1,2-.16,5.14,5.14,0,0,1,3.21.85,3.27,3.27,0,0,1,1.11,2.77v6.18h-1.89l-.14-1a3.82,3.82,0,0,1-1.45.87A6.56,6.56,0,0,1,105.45,73.44Zm.58-1.58a4.29,4.29,0,0,0,1.74-.34,3.22,3.22,0,0,0,1.2-.9V68.94h-3a2.15,2.15,0,0,0-1.41.37,1.43,1.43,0,0,0-.43,1.15,1.18,1.18,0,0,0,.5,1.07A2.65,2.65,0,0,0,106,71.86Z"/><path class="cls-2" d="M123.78,73.44a5.47,5.47,0,0,1-2.29-.45A3.2,3.2,0,0,1,120,71.51a5.87,5.87,0,0,1-.55-2.77,6.53,6.53,0,0,1,.59-2.91A4.06,4.06,0,0,1,121.62,64a4.56,4.56,0,0,1,2.36-.61,5.6,5.6,0,0,1,1.55.2,5.09,5.09,0,0,1,1.31.63V59.58H129V73.23h-1.88l-.14-1a4.39,4.39,0,0,1-1.42.87A5.22,5.22,0,0,1,123.78,73.44Zm.59-1.67a3.32,3.32,0,0,0,2.47-1V66a3.46,3.46,0,0,0-2.39-.85,2.48,2.48,0,0,0-2.11.93,4.46,4.46,0,0,0-.71,2.72,3.32,3.32,0,0,0,.66,2.37A2.88,2.88,0,0,0,124.37,71.77Z"/><path class="cls-2" d="M137.07,73.44a5.64,5.64,0,0,1-3.89-1.24,4.83,4.83,0,0,1-1.38-3.79A5.33,5.33,0,0,1,133,64.77a4.5,4.5,0,0,1,3.57-1.34,4.37,4.37,0,0,1,3.29,1.14,4.08,4.08,0,0,1,1.11,3V69.3h-7a2.41,2.41,0,0,0,1,1.93,5,5,0,0,0,2.59.52,7.76,7.76,0,0,0,1.5-.14,7,7,0,0,0,1.34-.36v1.62a6.08,6.08,0,0,1-1.49.42A10.21,10.21,0,0,1,137.07,73.44Zm-3.16-5.58H139V67.2a2.08,2.08,0,0,0-.55-1.55,2.47,2.47,0,0,0-1.84-.56,2.7,2.7,0,0,0-2.12.67A3.19,3.19,0,0,0,133.91,67.86Z"/><path class="cls-2" d="M155.44,73.44a6.32,6.32,0,0,1-4.85-1.75A6.61,6.61,0,0,1,149,67a8.8,8.8,0,0,1,.71-3.71,5.18,5.18,0,0,1,2.15-2.42A7.16,7.16,0,0,1,155.5,60a13.39,13.39,0,0,1,2.1.16,10.9,10.9,0,0,1,1.77.43v1.91a10.58,10.58,0,0,0-3.69-.61,4.12,4.12,0,0,0-3.49,1.32,6.12,6.12,0,0,0-1,3.78,5,5,0,0,0,1.05,3.43,4.17,4.17,0,0,0,3.26,1.17,8.19,8.19,0,0,0,2.82-.4V67.52h-3.27V66.08h5.15v6.28a6.89,6.89,0,0,1-1.79.74A11.13,11.13,0,0,1,155.44,73.44Z"/><path class="cls-2" d="M168,73.44a5.64,5.64,0,0,1-3.89-1.24,4.83,4.83,0,0,1-1.38-3.79,5.28,5.28,0,0,1,1.18-3.64,4.46,4.46,0,0,1,3.56-1.34,4.37,4.37,0,0,1,3.29,1.14,4.08,4.08,0,0,1,1.11,3V69.3h-7a2.44,2.44,0,0,0,1,1.93,5,5,0,0,0,2.59.52,7.76,7.76,0,0,0,1.5-.14,6.8,6.8,0,0,0,1.34-.36v1.62a6.08,6.08,0,0,1-1.49.42A10.21,10.21,0,0,1,168,73.44Zm-3.16-5.58h5.08V67.2a2.12,2.12,0,0,0-.54-1.55,2.5,2.5,0,0,0-1.85-.56,2.68,2.68,0,0,0-2.11.67A3.14,3.14,0,0,0,164.86,67.86Z"/><path class="cls-2" d="M177.94,73.44a11.49,11.49,0,0,1-1.89-.15,9,9,0,0,1-1.49-.34V71.09a8.22,8.22,0,0,0,1.52.4,8.82,8.82,0,0,0,1.58.14,4.71,4.71,0,0,0,1.62-.2.78.78,0,0,0,.49-.79.82.82,0,0,0-.3-.67,2.69,2.69,0,0,0-.87-.44c-.38-.14-.87-.3-1.47-.49a10.48,10.48,0,0,1-1.48-.62,2.62,2.62,0,0,1-1-.86,2.48,2.48,0,0,1-.34-1.38,2.41,2.41,0,0,1,.95-2,5.13,5.13,0,0,1,3.06-.72,10,10,0,0,1,1.58.12,8.1,8.1,0,0,1,1.28.3V65.7a6.52,6.52,0,0,0-1.25-.35,7.24,7.24,0,0,0-1.27-.12,5.33,5.33,0,0,0-1.59.18.72.72,0,0,0-.53.73.8.8,0,0,0,.55.8c.37.16,1,.37,1.8.64a8.88,8.88,0,0,1,1.8.73,2.37,2.37,0,0,1,1,.92,2.84,2.84,0,0,1,.3,1.39,2.4,2.4,0,0,1-1,2.12A5.41,5.41,0,0,1,177.94,73.44Z"/><path class="cls-2" d="M188.32,73.44a3,3,0,0,1-2.3-.83,3.13,3.13,0,0,1-.76-2.23v-5h-1.42V63.63h1.42V61.42l2.18-.67v2.88H190l-.15,1.72h-2.41v4.9a1.47,1.47,0,0,0,.39,1.17,1.92,1.92,0,0,0,1.26.33,3.53,3.53,0,0,0,1.15-.2v1.56A5,5,0,0,1,188.32,73.44Z"/><path class="cls-2" d="M193.72,73.23V65.31h-1.45l.2-1.68h3.46v9.6Zm-.18-11.6V59.8H196v1.83Z"/><path class="cls-2" d="M203.91,73.44a5,5,0,0,1-3.8-1.3,5.27,5.27,0,0,1-1.2-3.71,5.23,5.23,0,0,1,1.21-3.71,6.24,6.24,0,0,1,7.6,0,6.27,6.27,0,0,1,0,7.42A5,5,0,0,1,203.91,73.44Zm0-1.87a2.7,2.7,0,0,0,2.16-.74,4.8,4.8,0,0,0,0-4.79,2.77,2.77,0,0,0-2.16-.73,2.71,2.71,0,0,0-2.13.73,4.8,4.8,0,0,0,0,4.79A2.64,2.64,0,0,0,203.91,71.57Zm-1-8.91,1.52-3.59h1.94l-1.7,3.59Z"/><path class="cls-2" d="M211.89,73.23v-9.6h2l.1,1a6.52,6.52,0,0,1,1.55-.86,5.56,5.56,0,0,1,2-.35,3.66,3.66,0,0,1,2.71.87,3.73,3.73,0,0,1,.85,2.71v6.22h-2.19V67.11a2.13,2.13,0,0,0-.45-1.55,2.47,2.47,0,0,0-1.71-.45,3.79,3.79,0,0,0-1.47.3,4,4,0,0,0-1.21.79v7Z"/><polygon class="cls-2" points="96.79 62.17 98.31 58.59 100.25 58.59 98.55 62.17 96.79 62.17"/></g></g></svg>