<?xml version="1.0" encoding="UTF-8"?><svg xmlns="http://www.w3.org/2000/svg" viewBox="0 0 180.91 57.45"><defs><style>.d{fill:#2264ff;}.e{fill:#090e35;}</style></defs><g id="a"/><g id="b"><g id="c"><path class="d" d="M40.02,40.2V11.93h10.38l.3,2.27c1.23-.83,2.61-1.52,4.15-2.06,1.53-.54,3.21-.81,5.04-.81s3.26,.26,4.29,.78c1.03,.52,1.87,1.27,2.51,2.27,1.27-.91,2.71-1.65,4.32-2.21,1.61-.56,3.51-.83,5.7-.83,3.3,0,5.73,.86,7.28,2.59,1.55,1.73,2.33,4.36,2.33,7.9v18.37h-11.04V23.14c0-1.27-.26-2.18-.78-2.71-.52-.54-1.37-.81-2.56-.81-1.55,0-2.82,.56-3.82,1.67,.08,.52,.12,1,.12,1.46v17.45h-10.38V22.97c0-1.15-.2-2-.6-2.54-.4-.54-1.15-.81-2.27-.81-.76,0-1.49,.2-2.21,.6-.72,.4-1.35,.88-1.91,1.43v18.55h-10.86Zm59.29,.6c-1.79,0-3.45-.32-4.98-.95-1.53-.64-2.75-1.63-3.67-2.98-.92-1.35-1.37-3.06-1.37-5.13,0-2.98,.99-5.3,2.98-6.95,1.99-1.65,4.99-2.48,9.01-2.48h7.34v-.54c0-1.11-.46-1.93-1.37-2.45-.92-.52-2.53-.78-4.83-.78-3.26,0-6.48,.5-9.66,1.49v-6.74c1.43-.56,3.22-1.02,5.37-1.4,2.15-.38,4.33-.57,6.56-.57,4.49,0,8.05,.92,10.68,2.74,2.62,1.83,3.94,4.73,3.94,8.71v17.42h-9.78l-.54-2.27c-.99,.88-2.28,1.57-3.85,2.09-1.57,.52-3.51,.78-5.82,.78Zm3.82-6.56c1.27,0,2.36-.22,3.25-.66,.89-.44,1.64-.97,2.24-1.61v-3.52h-5.43c-2.47,0-3.7,.98-3.7,2.92s1.21,2.86,3.64,2.86Zm21.23,5.96V11.93h10.8l.3,2.27c1.15-.68,2.62-1.29,4.41-1.85,1.79-.56,3.6-.89,5.43-1.01v8.35c-1.03,.08-2.16,.22-3.37,.42-1.21,.2-2.39,.45-3.52,.75-1.13,.3-2.08,.63-2.83,.98v18.37h-11.21Zm24.1,0V0h11.21V19.86l7.87-7.93h12.71l-11.27,11.93,11.93,16.34h-11.93l-6.98-10.5-2.33,2.33v8.17h-11.21ZM32.5,9.82h2.18l1.73-7.77h-5.63l1.73,7.77Zm-.71,2.04c-.54,0-1.01-.37-1.13-.9l-1.34-6.05c-.64-.45-1.32-.84-2.06-1.18-2.78-1.29-6.14-1.94-10.08-1.94H0V40.2H17.18c6,0,10.62-1.51,13.84-4.53,3.22-3.02,4.83-7.83,4.83-14.44,0-3.7-.47-6.82-1.38-9.37h-2.68Zm-8.4,15.9c-.68,1.49-1.65,2.51-2.92,3.04-1.27,.54-2.84,.81-4.71,.81h-4.53V10.38h4.53c1.99,0,3.62,.31,4.89,.92,1.27,.62,2.22,1.71,2.83,3.28,.62,1.57,.92,3.79,.92,6.65s-.34,5.04-1.01,6.53Z"/><g><path class="e" d="M2.23,57.22v-6.24H0v-1.73H6.76v1.73h-2.23v6.24H2.23Z"/><path class="e" d="M8.61,57.22v-7.98h4.12c.65,0,1.18,.12,1.59,.36,.41,.24,.72,.57,.93,1,.2,.43,.31,.92,.31,1.48s-.13,1.01-.4,1.42-.62,.72-1.06,.94c.09,.07,.17,.16,.23,.27,.07,.1,.14,.25,.22,.43l.91,2.09h-2.41l-.84-1.92c-.07-.15-.15-.25-.24-.32s-.23-.09-.4-.09h-.65v2.33h-2.31Zm2.31-4.11h1.22c.34,0,.6-.09,.78-.27,.18-.18,.28-.43,.28-.76,0-.7-.33-1.05-.98-1.05h-1.29v2.08Z"/><path class="e" d="M16.85,57.22l3.04-7.98h2.45l3.04,7.98h-2.41l-.66-1.7h-2.39l-.65,1.7h-2.41Zm3.37-3.37h1.77l-.89-2.34-.89,2.34Z"/><path class="e" d="M27.46,57.22v-7.98h2.31v7.98h-2.31Z"/><path class="e" d="M32.11,57.22v-7.98h1.97l2.99,4.22v-4.22h2.31v7.98h-1.98l-2.98-4.21v4.21h-2.31Z"/><path class="e" d="M41.71,57.22v-7.98h2.31v7.98h-2.31Z"/><path class="e" d="M46.36,57.22v-7.98h1.97l2.99,4.22v-4.22h2.31v7.98h-1.98l-2.98-4.21v4.21h-2.31Z"/><path class="e" d="M60.05,57.35c-1.41,0-2.48-.35-3.22-1.05-.74-.7-1.11-1.69-1.11-2.99s.38-2.37,1.14-3.1c.76-.73,1.88-1.09,3.35-1.09,.49,0,.94,.03,1.33,.09,.4,.06,.77,.14,1.12,.26v1.99c-.36-.14-.73-.24-1.12-.28-.39-.05-.78-.07-1.18-.07-.76,0-1.33,.17-1.72,.52s-.57,.91-.57,1.68c0,.73,.17,1.25,.5,1.57s.82,.48,1.47,.48c.21,0,.41-.01,.6-.04s.37-.07,.53-.12v-1.16h-1.57v-1.44h3.5v4.01c-.3,.19-.71,.36-1.21,.51s-1.12,.22-1.85,.22Z"/><path class="e" d="M75.12,57.45l-.8-.82c-.28,.23-.63,.41-1.06,.53-.43,.12-.89,.19-1.38,.19-.97,0-1.74-.2-2.31-.61s-.86-.95-.86-1.63c0-.54,.14-1,.42-1.38,.28-.38,.67-.71,1.18-.99-.24-.25-.43-.49-.57-.74s-.22-.53-.22-.86c0-.6,.22-1.09,.66-1.46,.44-.37,1.04-.56,1.78-.56s1.34,.18,1.79,.55,.68,.85,.68,1.47c0,.4-.09,.74-.26,1.02s-.43,.56-.76,.84l1.23,1.26c.09-.16,.14-.35,.14-.58v-.21h1.71v.28c0,.33-.05,.65-.15,.97-.1,.31-.24,.58-.4,.79l.61,.63-1.43,1.3Zm-3.25-1.67c.46,0,.81-.13,1.05-.38l-1.23-1.26c-.25,.11-.44,.23-.57,.37s-.19,.32-.19,.55,.09,.41,.26,.54,.4,.19,.69,.19Zm.07-3.67c.21-.13,.37-.26,.48-.38,.11-.12,.16-.28,.16-.48,0-.18-.05-.33-.15-.44-.1-.11-.25-.17-.45-.17-.22,0-.38,.06-.48,.18-.1,.12-.15,.26-.15,.43,0,.18,.05,.33,.15,.46,.1,.12,.25,.26,.44,.4Z"/><path class="e" d="M86.44,57.35c-1.43,0-2.53-.35-3.28-1.07-.75-.71-1.13-1.71-1.13-3.01s.37-2.36,1.11-3.08c.74-.71,1.84-1.07,3.3-1.07,.49,0,.93,.04,1.32,.11,.39,.07,.75,.18,1.11,.31v2.03c-.71-.31-1.46-.47-2.26-.47-.75,0-1.3,.17-1.66,.51-.36,.34-.54,.89-.54,1.65s.19,1.28,.57,1.6,.93,.49,1.65,.49c.39,0,.78-.04,1.15-.11,.37-.07,.74-.19,1.11-.35v2.05c-.35,.12-.72,.22-1.11,.29-.39,.07-.83,.11-1.32,.11Z"/><path class="e" d="M90.96,57.22v-7.98h6v1.78h-3.69v1.3h3.23v1.81h-3.23v1.3h3.69v1.78h-6Z"/><path class="e" d="M98.93,57.22v-7.98h4.12c.65,0,1.18,.12,1.59,.36,.41,.24,.72,.57,.93,1,.2,.43,.31,.92,.31,1.48s-.13,1.01-.4,1.42-.62,.72-1.06,.94c.09,.07,.17,.16,.23,.27,.07,.1,.14,.25,.22,.43l.91,2.09h-2.41l-.84-1.92c-.07-.15-.15-.25-.24-.32s-.23-.09-.4-.09h-.65v2.33h-2.31Zm2.31-4.11h1.22c.34,0,.6-.09,.78-.27,.18-.18,.28-.43,.28-.76,0-.7-.33-1.05-.98-1.05h-1.29v2.08Z"/><path class="e" d="M109.7,57.22v-6.24h-2.23v-1.73h6.76v1.73h-2.23v6.24h-2.31Z"/><path class="e" d="M116.08,57.22v-7.98h2.31v7.98h-2.31Z"/><path class="e" d="M120.73,57.22v-7.98h5.95v1.73h-3.64v1.38h3.17v1.76h-3.17v3.11h-2.31Z"/><path class="e" d="M128.53,57.22v-7.98h2.31v7.98h-2.31Z"/><path class="e" d="M137.35,57.35c-1.43,0-2.53-.35-3.28-1.07-.75-.71-1.13-1.71-1.13-3.01s.37-2.36,1.11-3.08c.74-.71,1.84-1.07,3.3-1.07,.49,0,.93,.04,1.32,.11,.39,.07,.75,.18,1.11,.31v2.03c-.71-.31-1.46-.47-2.26-.47-.75,0-1.3,.17-1.66,.51-.36,.34-.54,.89-.54,1.65s.19,1.28,.57,1.6,.93,.49,1.65,.49c.39,0,.78-.04,1.15-.11,.37-.07,.74-.19,1.11-.35v2.05c-.35,.12-.72,.22-1.11,.29-.39,.07-.83,.11-1.32,.11Z"/><path class="e" d="M141.38,57.22l3.04-7.98h2.45l3.04,7.98h-2.41l-.66-1.7h-2.39l-.65,1.7h-2.41Zm3.37-3.37h1.77l-.89-2.34-.89,2.34Z"/><path class="e" d="M152.68,57.22v-6.24h-2.23v-1.73h6.76v1.73h-2.23v6.24h-2.31Z"/><path class="e" d="M159.06,57.22v-7.98h2.31v7.98h-2.31Z"/><path class="e" d="M167.51,57.35c-1.31,0-2.31-.32-3.01-.97-.69-.64-1.04-1.68-1.04-3.12,0-.99,.16-1.79,.47-2.4,.31-.61,.77-1.05,1.37-1.33,.6-.28,1.34-.42,2.21-.42s1.6,.14,2.21,.42c.6,.28,1.06,.72,1.37,1.33s.47,1.41,.47,2.4c0,1.44-.35,2.48-1.05,3.12-.7,.64-1.7,.97-3,.97Zm0-1.98c.59,0,1.02-.17,1.28-.5,.27-.33,.4-.87,.4-1.6,0-.78-.13-1.34-.4-1.67-.27-.33-.69-.49-1.28-.49s-1.02,.16-1.28,.49c-.27,.33-.4,.88-.4,1.67,0,.73,.13,1.27,.4,1.6,.27,.33,.69,.5,1.28,.5Z"/><path class="e" d="M173.65,57.22v-7.98h1.97l2.99,4.22v-4.22h2.31v7.98h-1.98l-2.98-4.21v4.21h-2.31Z"/></g></g></g></svg>